<?xml version="1.0" encoding="UTF-8"?>
<svg width="1200pt" height="1200pt" version="1.1" viewBox="0 0 1200 1200" xmlns="http://www.w3.org/2000/svg">
 <path d="m1131 784.31c-3.375-4.6406-8.9062-7.2188-14.672-6.7969l-200.02 12.188v-0.046875c2.3438-16.312-2.3906-32.859-12.984-45.469 11.062-12.375 15.328-29.391 11.297-45.469-3.9844-16.125-15.703-29.156-31.312-34.875v-44.859c34.828-9.3281 69.844-18.656 104.48-28.312h0.046875c8.5312-2.2031 13.828-10.688 12.141-19.359-10.172-48.188-20.156-98.484-30.328-147l186.98-78.328h0.046875c6.1875-2.5312 10.266-8.5781 10.312-15.328v-69.844c-0.28125-6.8906-4.5938-13.031-11.016-15.656l-200.02-72.656h0.046875c-8.6719-3.1875-18.234 1.2656-21.422 9.9375-3.1875 8.625 1.2656 18.234 9.8906 21.375l160.31 58.172-233.34 99.984-264.84-99.984h0.046875c-8.625-3.1875-18.281 1.2188-21.469 9.8438-3.2344 8.6719 1.1719 18.281 9.7969 21.516l231.98 87-226.97 95.672-504.52-214.03 504.52-183.47 305.81 111.19v-0.046875c8.3438 1.9688 16.781-2.7188 19.547-10.781 2.8125-8.0625-0.9375-16.922-8.6719-20.531l-311.34-113.16c-3.6562-1.3594-7.6875-1.3594-11.344 0l-549.98 200.02v-0.046875c-6.4219 2.5781-10.734 8.625-11.016 15.516v69.984c0 6.7031 4.0312 12.75 10.172 15.328l186.98 78.328c-10.172 48.516-20.156 98.812-30.188 147h0.046875c-1.7344 8.5781 3.4219 17.016 11.812 19.359 131.72 32.203 261.32 72.328 388.18 120.14 81.75-32.344 165.19-60.188 249.98-83.297v35.672c-15.609 5.625-27.422 18.656-31.5 34.734-4.0781 16.125 0.14062 33.188 11.203 45.562-11.484 14.812-16.219 33.75-13.031 52.172l-86.016 5.3438h0.046874c-0.046874-0.42188-0.046874-0.89062 0-1.3125-11.812-16.688-33.328-12.984-48.188-18.516-2.7188-3.4688-4.875-7.2656-6.5156-11.344-11.812-30-35.156-38.156-62.672-20.672-3.8906 2.5312-8.1562 4.4531-12.656 5.6719-4.5-1.2656-8.8125-3.1875-12.844-5.6719-27.328-17.484-50.016-9.3281-62.672 20.672h0.046874c-1.6406 4.2188-3.8906 8.1562-6.7031 11.672-14.672 4.8281-36.328 2.0156-47.484 17.672v1.6875c-126.66-7.5-267.52-16.688-386.02-23.344-5.6719-0.375-11.156 2.2031-14.484 6.7969-23.203 31.922-35.719 70.406-35.719 109.88s12.516 77.906 35.719 109.83c3.1406 4.3125 8.1562 6.8438 13.5 6.7969l145.5-8.8125c4.4062-0.23438 8.5781-2.25 11.484-5.5781 2.9531-3.3281 4.4531-7.6875 4.1719-12.094-0.23437-4.4062-2.25-8.5781-5.5781-11.484-3.3281-2.9531-7.6406-4.4531-12.094-4.1719l-70.312 4.3125c-29.156-48.516-29.156-109.12 0-157.64l308.16 18c1.3594 5.4375 2.0625 11.016 2.1562 16.641-9.5156 12.844-28.312 22.828-28.172 43.172 0.1875 20.344 18.516 30.328 27.984 42.984l0.046875 0.046875c0.046875 5.5781-0.65625 11.203-2.0156 16.641l-195.84 13.828c-9.1875 0.5625-16.219 8.4844-15.656 17.672s8.4844 16.219 17.672 15.656l197.81-11.812v1.1719c6.5625 7.9219 15.938 13.031 26.203 14.156l-53.156 76.828h-0.046875c-3.375 5.3906-3.375 12.281 0 17.672 3.1406 5.5781 9.1406 8.8594 15.516 8.4844l48.984-3.3281 21.656 44.016h0.046875c2.7656 5.7656 8.5781 9.375 15 9.375 6.375 0 12.188-3.6094 15-9.375l41.672-88.312 41.484 88.312c2.7656 5.7656 8.5781 9.4688 15 9.5156 6.375 0 12.188-3.6094 15-9.375l21.844-44.016 48.844 3.3281-0.046875 0.046875c6.4219 0.42188 12.516-2.8125 15.703-8.3906 3.1406-5.625 2.8125-12.516-0.84375-17.766l-53.344-76.828c10.078-0.98438 19.359-5.9062 25.828-13.688 0.42188-0.5625 0.79688-1.1719 1.0312-1.8281l86.156 5.3438v51.516-0.046875c0 4.4531 1.7344 8.6719 4.875 11.812 3.1406 3.0938 7.3594 4.875 11.766 4.875h66.703c4.4062 0 8.625-1.7812 11.766-4.875 3.1406-3.1406 4.875-7.3594 4.875-11.812v-46.312l200.02 12.188v-0.046875c5.3438 0.046875 10.359-2.4844 13.5-6.7969 23.391-31.828 36.094-70.266 36.234-109.73 0.09375-39.516-12.375-78-35.578-109.97zm-179.81-283.31c4.1719 20.812 8.4844 41.484 12.656 62.016l-80.531 21.469v-124.18l54.656-23.016c4.3594 21.188 8.8594 42.375 13.219 63.516zm182.16-215.02v33.328l-250.03 104.86v-32.156zm-516.66 219.19 233.34-99v32.016l-233.34 97.641zm-550.03-219.19 516.66 219.19v30.656l-516.66-216.66zm533.34 390c-124.82-51.984-241.82-79.688-363.84-113.16 8.4844-41.344 16.688-83.344 25.688-125.48l331.69 138.84h-0.046874c4.1719 1.7344 8.8594 1.7344 13.031 0l243.47-101.86v119.34c-85.031 21.984-168.52 49.5-249.98 82.312zm-481.5 299.21-27.656 1.8281c-32.344-50.531-32.344-115.17 0-165.71l27.656 1.6875c-24.469 51.281-24.469 110.91 0 162.19zm748.18-281.02c9.1875 0 16.641 7.4531 16.641 16.641 0 9.2344-7.4531 16.688-16.641 16.688s-16.688-7.4531-16.688-16.688c0-9.1875 7.5-16.641 16.688-16.641zm-357.32 122.48c9.8906-0.42188 19.547-3.4219 27.984-8.6719 12.328-8.6719 15.844-23.812 23.156-35.016v0.046875c12.141 7.3594 25.547 12.328 39.516 14.672 13.922-2.3438 27.281-7.3594 39.328-14.672 7.3125 10.828 11.016 26.484 22.828 34.688v-0.046875c12.562 6.4688 26.297 10.266 40.359 11.156-3.0938 13.734-3.6562 27.938-1.6875 41.859 4.3125 14.156 18.188 22.312 26.156 33.328-8.3438 11.344-21.656 18.328-26.156 33.328-2.0156 13.922-1.4531 28.125 1.6875 41.859-11.25 1.6406-22.406 3.9375-33.328 6.9844-2.5781 0.9375-5.0156 2.2969-7.1719 3.9844-12.328 8.4844-15.656 24-23.156 35.156h-0.046876c-11.531-7.2656-24.281-12.469-37.641-15.328-15.328 0-27.656 9.8438-40.5 14.812-7.1719-10.5-11.156-26.812-22.172-34.312-2.25-1.8281-4.7812-3.3281-7.5-4.3125h-1.1719c-10.5-3-21.188-5.2031-32.016-6.6562 3.2344-13.922 3.9844-28.312 2.2031-42.516-6.4219-12.562-15.516-23.531-26.672-32.156 6.9844-10.688 22.688-19.312 26.672-33.328 1.875-13.969 1.3125-28.125-1.6875-41.859 3.6094-1.2188 7.2656-2.2031 11.016-3zm33.328 283.31c-6.6562-10.688-11.156-33.328-27.516-32.344l-25.5 1.6875 35.156-50.016c6.8438 16.688 22.828 33.328 42.844 27.844zm141.32-32.344c-16.688-1.6875-21 21.844-27.328 32.344l-25.172-53.484c20.016 6 36-10.688 42.984-27.844l35.016 50.016zm50.016-114.33v0.046875c-1.3125-5.4844-2.0156-11.062-2.0156-16.688 9.5156-12.844 28.312-22.828 28.172-43.172-0.1875-20.297-18.188-29.672-26.859-42.469 0.046875-5.625 0.70312-11.203 2.0156-16.688l81.328-5.3438v130.31zm149.29 74.203h-33.328v-249.98c0.375-6.6094 4.5469-12.375 10.734-14.719s13.125-0.84375 17.766 3.8906c8.0156 5.4844 3.8438 31.828 4.8281 41.344zm33.328-62.156 0.046875-142.36 127.5-7.6875v0.046875c29.156 48.516 29.156 109.12 0 157.64zm192.32 11.672-27.656-1.6875c24.703-51.281 24.703-111.05 0-162.32l27.656-1.6875h0.046875c32.484 50.484 32.484 115.22 0 165.71zm-508.97 0.46875c110.02-3.5156 110.02-163.18 0-166.69-110.16 3.5156-110.16 163.22 0 166.69zm0-133.31c27.609 0 50.016 22.359 50.016 50.016 0 27.609-22.406 49.969-50.016 49.969s-50.016-22.359-50.016-49.969c0-27.656 22.406-50.016 50.016-50.016z" fill="#ff3d6a"/>
</svg>
