<?xml version="1.0" encoding="UTF-8"?><svg id="b" xmlns="http://www.w3.org/2000/svg" viewBox="0 0 479.38 112.73"><defs><style>.c{fill:#fff;}.d,.e{fill:#20562e;}.f{fill:#a6a8ab;}.f,.e{fill-rule:evenodd;}.g{fill:#6f727e;}</style></defs><path class="f" d="M162.03,21.02c-.2-1.41-.48-2.81-1.03-4.13-.02-.09-.05-.18-.07-.26-.61-1.51-1.22-2.98-2.07-4.38-.43-.71-.88-1.43-1.39-2.09-.47-.62-1-1.18-1.47-1.8-.04-.04-.08-.08-.12-.11-.22-.29-.51-.56-.78-.82-.28-.27-.52-.56-.83-.79-.07-.07-.15-.15-.22-.22-.49-.37-.94-.78-1.42-1.15-.45-.34-.91-.68-1.38-.99-.97-.64-1.96-1.18-2.99-1.7-1.07-.53-2.08-.84-3.34-1.26-1.62-.55-8.25-2.28-15.95,1.21-2.66,1.2-2.06,1.05-3.01,1.71-.48.33-.95.68-1.42,1.03-.42.32-.8.7-1.23,1.02-.1.11-.21.22-.32.32-.3.22-.62.55-.85.85-.06.06-.12.12-.18.17-.61.8-1.31,1.5-1.88,2.33-.61.88-1.21,1.8-1.68,2.76-.47.95-.88,1.93-1.21,2.93-1.49,4.55-1.11,9.19-.11,12.4.32,1.03.69,2.02,1.17,2.99.45.91.97,1.79,1.53,2.64.28.41.57.83.89,1.21.31.36.59.77.95,1.09.33.31.6.7.96.97.17.12.28.3.45.43.21.16.41.33.61.5.77.65,1.58,1.23,2.45,1.76.9.55,1.85,1,2.82,1.39,6.75,2.75,13.29.65,15.83-.9,1.43-.87,2.79-1.74,4-2.9,1.19-1.13,2.26-2.46,3.11-3.87.4-.66.76-1.35,1.06-2.07.33-.8.6-1.6.86-2.43,1.26-4.81.1-8.75-.45-10.17-.39-1.01-.85-1.94-1.37-2.9-.48-.89-1.15-1.74-1.81-2.5-.64-.75-1.36-1.43-2.13-2.05-1.65-1.33-3.46-2.31-5.47-2.92-7.54-2.28-12.94,2.15-14.28,3.26-.09.09-.18.17-.26.26-.15.12-.31.27-.43.42-.11.11-.23.22-.33.32-.23.31-.53.56-.76.87-.22.29-.44.59-.65.89-.42.6-.81,1.22-1.15,1.86-.37.7-.65,1.42-.88,2.19-1.17,3.77-.13,7.04.62,8.88.55,1.37,1.52,2.58,2.44,3.79.04.04.08.08.12.11.18.24.48.55.72.73.05.06.11.11.16.18.44.33.83.72,1.29,1.04.43.3.87.58,1.33.83,6.64,3.56,12.35-1.29,13.35-2.45.55-.63,1.14-1.27,1.58-1.97.25-.39.48-.8.72-1.21.11-.19.21-.39.32-.58.08-.14.27-.45.27-.46,0,0-.57-.33-.73-.42-.31-.18-.6-.35-.91-.53-.3-.17-.61-.35-.91-.53-.2-.12-.7-.41-.69-.4,0,0-.36.57-.44.71-.18.3-.36.61-.54.91-.35.59-.75,1.09-1.16,1.63-.06.05-.11.1-.16.15-.33.43-.83.82-1.26,1.13-.49.34-1.02.64-1.57.89-.95.43-2.05.68-3.09.64-2.03-.07-3.83-1.12-5.22-2.55-2.67-2.74-3.9-6.94-2.23-10.53.73-1.57,1.77-2.99,3.09-4.12.66-.57,1.37-1.07,2.15-1.47,4.02-2.03,7.34-1.38,9.61-.46,1.25.5,2.27,1.3,3.34,2.1.06.07.13.13.2.2.27.21.57.49.77.76.05.05.1.09.14.14.41.53.84,1.02,1.21,1.57.37.54.69,1.11.96,1.72.26.59.53,1.19.69,1.82.88,3.42.74,5.21-.17,8.23-.19.62-.51,1.2-.81,1.77-.31.59-.65,1.18-1.05,1.72-.38.52-.84.98-1.23,1.5-.15.15-.31.3-.47.46-1.03,1.03-2.28,1.81-3.53,2.56-1.56.94-6.39,2.63-11.44,1-.97-.32-1.91-.73-2.8-1.22-1.56-.86-2.98-2.03-4.19-3.35-1.21-1.33-2.22-2.84-2.93-4.49-1.39-3.22-1.74-7.06-1.2-9.68.18-.86.36-1.7.66-2.53.28-.79.6-1.56.97-2.3.36-.72.77-1.42,1.24-2.07.27-.38.56-.74.84-1.12.23-.3.5-.56.73-.86.13-.13.26-.26.38-.38.12-.16.27-.3.43-.42.08-.08.15-.16.23-.25.43-.32.82-.71,1.23-1.05.41-.34.87-.66,1.32-.95,6.01-3.82,12.24-3.52,16.41-2.09.85.29,1.67.68,2.49,1.06.82.38,1.65.91,2.39,1.43.75.53,1.41,1.14,2.14,1.69.09.09.18.18.27.27.36.27.72.64,1,1,.05.04.1.09.15.14,1.38,1.54,2.53,3.24,3.43,5.11.48.98.88,1.99,1.18,3.03.15.52.25,1.04.4,1.56.39,1.29.82,5.25-.11,8.91-.17.68-.38,1.38-.63,2.04-.25.68-.54,1.34-.85,1.99-.16.35-.36.67-.53,1.02-.12.25-.42.79-.41.81,0,.01.6.32.73.39.34.17.67.34,1.01.52.32.16.63.34.96.5.19.09.63.31.63.32,0,.01.32-.56.38-.68.16-.31.32-.63.48-.94.29-.59.57-1.19.83-1.8.28-.67.51-1.37.73-2.06.2-.62.33-1.27.51-1.9.01-.1.03-.21.05-.31.79-3.9.33-7.18.18-8.21"/><path class="e" d="M169.96,90.04v-12.53c-1.53-.21-2.64-.53-3.18-.71-1.25-.43-2.27-.73-3.34-1.26-1.03-.52-2.02-1.06-2.99-1.69-.47-.31-.93-.65-1.38-.99-.48-.37-.94-.78-1.42-1.15-.07-.07-.15-.15-.22-.22-.31-.23-.56-.53-.84-.8-.27-.25-.56-.52-.78-.82-.04-.04-.08-.07-.13-.11-.46-.61-.99-1.18-1.46-1.8-.5-.67-.95-1.38-1.39-2.09-.84-1.4-1.45-2.88-2.07-4.38-.02-.09-.05-.18-.07-.27-.54-1.33-.83-2.72-1.03-4.13-.15-1.03-.61-4.3.18-8.21.03-.1.03-.21.05-.31.18-.63.31-1.27.51-1.9.22-.7.45-1.39.73-2.06.25-.61.54-1.21.83-1.8.15-.31.32-.62.48-.94.06-.12.39-.69.38-.68,0,0,.44.23.62.32.33.15.64.34.95.5.34.17.67.35,1.01.52.13.07.72.38.73.39,0,.02-.29.56-.41.81-.17.34-.37.67-.53,1.02-.31.66-.6,1.31-.86,1.99-.25.65-.46,1.35-.63,2.03-.93,3.66-.5,7.62-.11,8.91.16.52.25,1.04.4,1.56.31,1.05.71,2.05,1.18,3.03.9,1.87,2.06,3.57,3.44,5.12.05.04.1.09.15.14.27.36.64.72,1,.99.09.09.18.18.27.27.73.55,1.39,1.16,2.14,1.69.74.52,1.56,1.04,2.38,1.42.82.38,1.64.77,2.5,1.06,4.17,1.42,10.4,1.72,16.41-2.09.45-.29.91-.61,1.32-.95.41-.35.8-.73,1.23-1.05.08-.08.15-.17.24-.25.15-.12.3-.27.42-.42.13-.13.26-.25.39-.38.23-.3.5-.56.73-.86.28-.37.57-.74.84-1.11.47-.65.89-1.35,1.25-2.08.37-.74.69-1.52.97-2.3.3-.83.48-1.66.66-2.53.54-2.61.19-6.46-1.2-9.68-.71-1.65-1.72-3.16-2.93-4.49-1.2-1.32-2.62-2.49-4.18-3.35-.9-.49-1.83-.9-2.81-1.22-5.05-1.63-9.87.06-11.44,1-1.25.74-2.5,1.53-3.53,2.56-.16.15-.32.31-.47.46-.39.51-.85.97-1.23,1.49-.39.54-.73,1.12-1.04,1.72-.3.57-.62,1.15-.81,1.77-.91,3.02-1.05,4.81-.17,8.23.16.63.43,1.23.69,1.82.27.6.59,1.17.96,1.71.38.55.81,1.04,1.21,1.57.05.04.1.09.15.14.21.27.5.55.77.76.07.06.13.13.2.19,1.07.81,2.09,1.61,3.33,2.11,2.27.91,5.59,1.57,9.62-.46.77-.39,1.48-.9,2.14-1.46,1.32-1.13,2.36-2.55,3.09-4.12,1.67-3.59.44-7.78-2.23-10.53-1.39-1.43-3.19-2.48-5.22-2.55-1.05-.03-2.15.21-3.1.64-.54.24-1.07.54-1.56.88-.44.31-.94.7-1.27,1.13-.05.05-.11.1-.17.15-.4.54-.81,1.05-1.15,1.64-.18.3-.36.61-.54.91-.08.13-.44.7-.44.71,0,.01-.5-.28-.69-.4-.3-.18-.61-.36-.92-.53-.3-.17-.6-.35-.9-.53-.17-.09-.72-.42-.72-.42,0-.01.18-.32.26-.46.11-.19.21-.39.32-.58.23-.4.47-.81.71-1.21.45-.71,1.03-1.34,1.58-1.97,1.01-1.15,6.71-6,13.36-2.45.46.25.9.53,1.33.83.45.32.85.71,1.29,1.04.06.06.11.12.16.18.24.18.54.49.72.73.04.04.09.07.13.11.92,1.22,1.88,2.43,2.43,3.8.75,1.84,1.78,5.1.62,8.88-.23.76-.51,1.48-.87,2.18-.34.65-.73,1.27-1.15,1.86-.21.3-.43.6-.64.89-.23.31-.53.56-.76.87-.11.11-.22.22-.34.32-.12.15-.28.31-.43.42l-.26.26c-1.34,1.12-6.74,5.54-14.27,3.26-2.02-.6-3.83-1.58-5.47-2.92-.77-.62-1.48-1.3-2.13-2.04-.66-.77-1.33-1.62-1.81-2.51-.52-.95-.98-1.89-1.37-2.89-.54-1.42-1.71-5.36-.44-10.16.26-.83.53-1.63.86-2.43.29-.73.66-1.41,1.06-2.07.85-1.42,1.92-2.74,3.11-3.88,1.21-1.16,2.58-2.03,4-2.9,2.54-1.55,9.08-3.64,15.83-.9.97.4,1.92.85,2.82,1.39.86.52,1.68,1.11,2.45,1.76.2.17.4.34.61.5.17.13.28.31.45.44.36.27.63.66.96.97.35.32.64.73.95,1.09.32.39.6.8.88,1.21.57.84,1.09,1.72,1.54,2.64.47.97.85,1.96,1.17,2.99,1,3.21,1.38,7.85-.11,12.4-.32,1-.74,1.98-1.21,2.93-.48.96-1.07,1.87-1.68,2.76-.57.83-1.27,1.53-1.88,2.33-.06.06-.13.12-.19.17-.22.29-.55.62-.84.84-.11.11-.21.21-.32.32-.43.32-.8.7-1.23,1.02-.47.35-.93.7-1.42,1.04-.96.66-.36.5-3.01,1.71-3.02,1.37-5.87,1.93-8.32,2.08v12.37h-4.44Z"/><path class="g" d="M179.83,104.06c1.14,0,2.02.88,2.02,1.98s-.88,1.99-2.03,1.99-2.04-.87-2.04-1.99.9-1.98,2.04-1.98h.01ZM179.8,104.46c-.87,0-1.52.71-1.52,1.58s.65,1.59,1.55,1.59c.87.01,1.51-.7,1.51-1.59s-.64-1.58-1.52-1.58h-.01ZM179.5,107.07h-.46v-1.97c.18-.04.44-.07.76-.07.38,0,.54.06.69.16.11.09.19.24.19.42,0,.23-.17.4-.41.47v.02c.19.06.3.22.36.48.06.3.1.42.15.48h-.49c-.06-.07-.1-.24-.16-.47-.04-.22-.16-.32-.41-.32h-.22v.79ZM179.51,105.96h.22c.25,0,.46-.09.46-.29,0-.18-.13-.3-.42-.3-.12,0-.21.01-.25.03v.57Z"/><path class="g" d="M10.54,60.66c-6.22,0-10.54-5.12-10.54-10.45,0-5.6,4.72-10.45,10.54-10.45,2.51,0,4.59.62,6.53,1.5v2.51c-2.16-1.14-4.1-1.72-6.53-1.72-4.76,0-7.94,3.88-7.94,8.16s2.91,8.16,7.94,8.16c2.6,0,5.47-1.28,6.53-1.98v2.6c-2.25,1.15-4.76,1.67-6.53,1.67Z"/><path class="g" d="M32.06,60.17v-2.12c-1.54,1.32-3.66,2.6-6.35,2.6-3.79,0-6.53-2.29-6.53-5.64,0-1.63.62-4.01,3.4-5.56,1.9-1.06,5.56-1.46,9.48-1.46v-1.32c0-3.88-2.38-4.72-4.54-4.72-2.42,0-5.2.88-6.92,1.76l.53-2.51c1.76-.75,4.06-1.45,6.79-1.45,4.06,0,6.7,2.16,6.7,6.79v13.63h-2.56ZM32.06,50.16c-2.78,0-6.44.26-8.07,1.15-1.41.75-2.21,2.03-2.21,3.57,0,2.38,1.94,3.57,4.19,3.57,2.07,0,4.14-1.02,6.09-2.74v-5.56Z"/><path class="g" d="M47.41,42.18c-2.16,0-3.97,1.5-5.25,3.04v14.95h-2.56v-19.98h2.56v2.56c1.15-1.23,3.17-2.91,5.73-2.91.75,0,1.9.26,2.6.66v2.82c-.88-.84-1.94-1.14-3.09-1.14Z"/><path class="g" d="M61.43,60.66c-1.37,0-4.01-.66-5.86-2.52v2.03h-2.38v-29.64h2.56v11.16c1.76-1.23,4.06-1.94,5.69-1.94,6.04,0,10.41,5.03,10.41,10.45s-4.19,10.45-10.41,10.45ZM61.43,42.05c-1.68,0-3.88.84-5.69,2.07v11.78c1.23,1.28,3.39,2.47,5.69,2.47,5.03,0,7.81-3.97,7.81-8.16s-2.96-8.16-7.81-8.16Z"/><path class="g" d="M84.41,60.66c-6.22,0-10.54-5.12-10.54-10.45s4.32-10.45,10.54-10.45,10.54,5.12,10.54,10.45-4.32,10.45-10.54,10.45ZM84.41,42.05c-5.03,0-7.94,3.97-7.94,8.16s2.91,8.16,7.94,8.16,7.94-3.97,7.94-8.16-2.91-8.16-7.94-8.16Z"/><path class="g" d="M112.9,60.17v-12.44c0-3.79-3-5.69-6-5.69-2.65,0-4.72,1.37-6.26,2.73v15.39h-2.56v-19.98h2.56v2.16c1.46-1.15,3.75-2.6,6.62-2.6,4.28,0,8.2,2.78,8.2,8.2v12.22h-2.56Z"/><path class="d" d="M16.64,89.96v-10.88c0-3.52-1.87-4.86-3.97-4.86-1.7,0-2.81.58-4.19,1.7v14.05H2.18v-20.52h5.98v1.96c1.56-1.34,3.52-2.59,6.56-2.59,3.66,0,8.21,2.23,8.21,9.28v11.87h-6.29Z"/><path class="d" d="M31.63,81.22c.09,2.72,2.19,4.59,5.84,4.59,2.76,0,6.42-1.29,8.56-3.03v5.26c-2.32,1.52-6.15,2.54-9.68,2.54-6.87,0-11.11-4.33-11.11-10.88,0-5.57,4.1-10.88,10.93-10.88,4.64,0,10.35,2.23,10.39,12.4h-14.94ZM36.13,73.5c-2.45,0-4.01,1.61-4.37,3.7h8.47c-.36-2.68-2.05-3.7-4.1-3.7Z"/><path class="d" d="M64.28,89.96v-1.96c-1.56,1.34-3.52,2.59-6.56,2.59-3.66,0-8.21-2.23-8.21-9.28v-11.87h6.29v10.88c0,3.52,1.87,4.86,3.97,4.86,1.69,0,2.81-.58,4.19-1.7v-14.05h6.29v20.52h-5.98Z"/><path class="d" d="M85.42,90.36c-4.24,0-8.12-2.32-8.12-7.23v-8.79h-3.66v-4.91h3.66v-5.49h6.29v5.49h6.69v4.91h-6.69v7.58c0,2.63,1.34,3.39,3.44,3.39,1.78,0,3.26-.8,4.01-1.38v5.31c-1.56.71-3.3,1.11-5.62,1.11Z"/><path class="d" d="M104.07,74.21c-1.56,0-3.08.67-4.24,1.65v14.1h-6.29v-20.52h5.98v2.01c1.25-1.16,2.94-2.37,5.26-2.37,1.29,0,2.14.27,3.03.81v5.4c-1.07-.58-2.23-1.07-3.75-1.07Z"/><path class="d" d="M137.61,90.41c-4.77,0-7.09-3.3-7.09-7.4v-18h6.29v17.33c0,1.38.45,2.72,2.72,2.72.89,0,1.79-.22,2.81-.89v5.13c-1.78.85-2.99,1.11-4.73,1.11Z"/><path class="d" d="M118.7,68.82c-2.72,0-5.53.76-7.85,1.78v.03s0,4.46,0,4.46c1.85-1.01,4.07-1.73,6.07-1.73,1.83,0,4.1.27,4.19,3.26-3.88.22-7.32.98-9.41,2.19-2.68,1.52-3.43,3.61-3.43,5.35,0,4.01,3.3,6.11,6.87,6.11,1.96,0,4.42-.94,6.29-2.23v1.92h5.8v-12.89c0-5.75-3.43-8.25-8.52-8.25ZM121.11,84.38c-1.56,1.16-3.61,1.65-4.11,1.65-2.32,0-2.9-1.2-2.9-2.1,0-1.11.54-1.97,1.7-2.5,1.07-.53,2.36-.85,5.31-1.11v4.06Z"/><path class="g" d="M2.5,100.93v1.69h3.3v9.2h1.79v-9.2h3.3v-1.69H2.5Z"/><path class="g" d="M15.51,104.21v5.43c-.59.48-1.14.73-1.73.73-.81,0-1.64-.47-1.64-1.52v-4.64h-1.7v4.56c0,2.2,1.66,3.2,3.21,3.2.63,0,1.24-.23,1.85-.58v.43h1.7v-7.61h-1.7Z"/><path class="g" d="M21.03,104.61v-.4h-1.7v7.61h1.7v-5.32c.34-.38.82-.8,1.38-.8.33,0,.57.09.77.28l.69.66v-2.16l-.21-.12c-.32-.18-.79-.28-1.09-.28-.61,0-1.12.23-1.54.52Z"/><path class="g" d="M26.66,104.64v-.43h-1.7v7.61h1.7v-5.43c.59-.48,1.14-.73,1.73-.73.81,0,1.64.47,1.64,1.52v4.64h1.7v-4.56c0-2.2-1.66-3.2-3.21-3.2-.63,0-1.24.23-1.85.58Z"/><path class="g" d="M36.94,100.93v10.89h7v-1.69h-5.21v-3.19h4.02v-1.69h-4.02v-2.62h5.06v-1.69h-6.85Z"/><path class="g" d="M51.38,105.18c-.55-.67-1.3-1.12-2.15-1.12-.75,0-1.4.28-1.89.57v-.42h-1.7v7.61h1.7v-5.4c.48-.39,1.04-.76,1.67-.76.72,0,1.47.57,1.47,1.52v4.64h1.7v-4.56s-.06-.43-.11-.74c.64-.55,1.22-.85,1.76-.85.72,0,1.47.57,1.47,1.52v4.64h1.7v-4.56c0-1.79-1.29-3.2-2.94-3.2-.91,0-1.77.4-2.67,1.12Z"/><path class="g" d="M59.13,104.21v7.61h1.7v-7.61h-1.7Z"/><path class="g" d="M62.57,106.34c0,.5.21.98.6,1.37.3.3.73.52,2.56,1.27.86.35.86.57.86.67,0,.66-.8.73-1.14.73-.78,0-1.65-.21-2.27-.55l-.61-.33v1.83l.25.11c.47.21,1.54.56,2.56.56,1.44,0,2.9-.82,2.9-2.38,0-.58-.28-1.15-.74-1.52-.45-.37-.7-.49-2.39-1.17-.9-.36-.9-.55-.9-.68,0-.35.47-.61,1.11-.61s1.19.18,1.91.49l.57.25v-1.77l-.36-.13c-.63-.23-1.17-.43-2.03-.43-1.98,0-2.87,1.15-2.87,2.28Z"/><path class="g" d="M69.39,106.34c0,.5.21.98.6,1.37.3.3.73.52,2.56,1.27.86.35.86.57.86.67,0,.66-.8.73-1.14.73-.78,0-1.65-.21-2.27-.55l-.61-.33v1.83l.25.11c.47.21,1.54.56,2.56.56,1.44,0,2.9-.82,2.9-2.38,0-.58-.28-1.15-.74-1.52-.45-.37-.7-.49-2.39-1.17-.9-.36-.9-.55-.9-.68,0-.35.47-.61,1.11-.61s1.19.18,1.91.49l.57.25v-1.77l-.36-.13c-.63-.23-1.17-.43-2.03-.43-1.98,0-2.87,1.15-2.87,2.28Z"/><path class="g" d="M76.77,104.21v7.61h1.7v-7.61h-1.7Z"/><path class="g" d="M80.3,108.02c0,1.91,1.53,3.96,4.01,3.96s4.01-2.06,4.01-3.96-1.53-3.96-4.01-3.96-4.01,2.06-4.01,3.96ZM82.02,108.02c0-1.17.79-2.36,2.3-2.36s2.3,1.19,2.3,2.36-.79,2.36-2.3,2.36-2.3-1.19-2.3-2.36Z"/><path class="g" d="M91.77,104.64v-.43h-1.7v7.61h1.7v-5.43c.59-.48,1.14-.73,1.73-.73.81,0,1.63.47,1.63,1.52v4.64h1.7v-4.56c0-2.2-1.66-3.2-3.21-3.2-.63,0-1.24.23-1.85.58Z"/><path class="g" d="M98.52,106.34c0,.5.21.98.6,1.37.3.3.73.52,2.56,1.27.86.35.86.57.86.67,0,.66-.8.73-1.14.73-.78,0-1.65-.21-2.27-.55l-.61-.33v1.83l.25.11c.47.21,1.54.56,2.56.56,1.44,0,2.9-.82,2.9-2.38,0-.58-.28-1.15-.74-1.52-.45-.37-.7-.49-2.39-1.17-.9-.36-.9-.55-.9-.68,0-.35.47-.61,1.11-.61s1.19.18,1.91.49l.57.25v-1.77l-.36-.13c-.63-.23-1.17-.43-2.03-.43-1.98,0-2.87,1.15-2.87,2.28Z"/><path class="g" d="M109.66,104.21v7.61h1.7v-7.61h-1.7Z"/><path class="g" d="M115.27,104.64v-.43h-1.7v7.61h1.7v-5.43c.59-.48,1.14-.73,1.73-.73.81,0,1.63.47,1.63,1.52v4.64h1.7v-4.56c0-2.2-1.66-3.2-3.21-3.2-.63,0-1.24.23-1.85.58Z"/><path class="g" d="M122.74,102.53v1.68h-1.05v1.57h1.05v3.51c0,1.98,1.28,2.69,2.47,2.69.61,0,1.24-.16,1.81-.45l.22-.12v-1.92l-.66.5c-.36.27-.74.4-1.2.4-.64,0-.96-.39-.96-1.15v-3.47h2.5v-1.57h-2.5v-1.68h-1.7Z"/><path class="g" d="M127.75,108.02c0,1.91,1.53,3.96,4.01,3.96s4.01-2.06,4.01-3.96-1.53-3.96-4.01-3.96-4.01,2.06-4.01,3.96ZM129.46,108.02c0-1.17.79-2.36,2.3-2.36s2.3,1.19,2.3,2.36-.79,2.36-2.3,2.36-2.3-1.19-2.3-2.36Z"/><path class="g" d="M138.81,100.93v1.69h3.3v9.2h1.79v-9.2h3.3v-1.69h-8.38Z"/><path class="g" d="M148.44,104.61v-.4h-1.7v7.61h1.7v-5.32c.34-.38.82-.8,1.38-.8.32,0,.57.09.77.28l.7.66v-2.16l-.21-.12c-.32-.18-.79-.28-1.09-.28-.61,0-1.12.23-1.55.52Z"/><path class="g" d="M151.67,107.98c0,2.41,1.57,4.02,3.9,4.02,1.04,0,2.14-.32,2.94-.87l.18-.12v-1.84l-.64.43c-.84.56-1.55.8-2.37.8-1.61,0-2.09-1.02-2.24-1.86h5.38v-.49c0-2.62-1.71-3.99-3.41-3.99-2.34,0-3.74,1.99-3.74,3.92ZM155.37,105.66c.89,0,1.39.59,1.59,1.27h-3.38c.28-.68.9-1.27,1.79-1.27Z"/><path class="g" d="M160.21,107.98c0,2.41,1.57,4.02,3.9,4.02,1.04,0,2.14-.32,2.94-.87l.18-.12v-1.84l-.64.43c-.84.56-1.55.8-2.37.8-1.61,0-2.09-1.02-2.24-1.86h5.38v-.49c0-2.62-1.71-3.99-3.41-3.99-2.34,0-3.74,1.99-3.74,3.92ZM163.9,105.66c.89,0,1.39.59,1.58,1.27h-3.37c.28-.68.9-1.27,1.79-1.27Z"/><path class="g" d="M168.65,106.34c0,.5.21.98.6,1.37.3.3.73.52,2.56,1.27.86.35.86.57.86.67,0,.66-.8.73-1.14.73-.78,0-1.65-.21-2.27-.55l-.61-.33v1.83l.24.11c.47.21,1.54.56,2.56.56,1.44,0,2.9-.82,2.9-2.38,0-.58-.28-1.15-.74-1.52-.45-.37-.7-.49-2.39-1.17-.9-.36-.9-.55-.9-.68,0-.35.47-.61,1.11-.61s1.19.18,1.92.49l.57.25v-1.77l-.36-.13c-.63-.23-1.17-.43-2.03-.43-1.98,0-2.87,1.15-2.87,2.28Z"/><path class="g" d="M61.1,102.06c0,.63-.51,1.13-1.13,1.13s-1.13-.51-1.13-1.13.51-1.13,1.13-1.13,1.13.51,1.13,1.13Z"/><path class="g" d="M78.73,102.07c0,.63-.51,1.13-1.13,1.13s-1.13-.51-1.13-1.13.51-1.13,1.13-1.13,1.13.51,1.13,1.13Z"/><path class="g" d="M111.64,102.06c0,.63-.51,1.13-1.13,1.13s-1.14-.51-1.14-1.13.51-1.13,1.14-1.13,1.13.51,1.13,1.13Z"/><path class="d" d="M186.32,85.92c1.2,0,2.13.93,2.13,2.1s-.93,2.11-2.15,2.11-2.16-.92-2.16-2.11.96-2.1,2.16-2.1h.02ZM186.29,86.35c-.92,0-1.61.75-1.61,1.67s.69,1.68,1.64,1.68c.92.01,1.6-.74,1.6-1.68s-.68-1.67-1.61-1.67h-.01ZM185.97,89.11h-.49v-2.08c.19-.04.46-.08.81-.08.4,0,.58.06.73.17.12.09.2.26.2.45,0,.24-.18.42-.43.5v.03c.2.06.32.23.38.51.06.32.1.45.15.51h-.52c-.07-.08-.1-.25-.17-.5-.04-.23-.17-.33-.43-.33h-.23v.83ZM185.98,87.93h.23c.27,0,.49-.09.49-.31,0-.19-.14-.32-.45-.32-.13,0-.22.01-.27.03v.6Z"/><rect class="d" x="224.78" width="3" height="112.73"/><path class="d" d="M276.47,66.05c0,4.83-3.02,7.62-8.3,7.62h-4.12v5.93h-4.68v-20.75h8.8c5.28,0,8.3,2.61,8.3,7.21ZM272.02,66.19c0-2.31-1.48-3.47-4.09-3.47h-3.88v7.03h3.88c2.61,0,4.09-1.19,4.09-3.56Z"/><path class="d" d="M284.14,58.84v16.66h8.89v4.09h-13.58v-20.75h4.68Z"/><path class="d" d="M309.64,75.56h-9.61l-1.63,4.03h-4.83l9.01-20.75h4.83l8.86,20.75h-5.01l-1.63-4.03ZM308.12,71.8l-3.26-8.06-3.29,8.06h6.55Z"/><path class="d" d="M322.71,58.84l10.08,13.34v-13.34h4.45v20.75h-4.27l-10.05-13.31v13.31h-4.48v-20.75h4.27Z"/><path class="d" d="M357.1,58.84v3.97h-6.34v16.78h-4.68v-16.78h-6.31v-3.97h17.34Z"/><path class="d" d="M366.67,69.01v3.02h-7.65v-3.02h7.65Z"/><path class="d" d="M384.34,75.56h-9.61l-1.63,4.03h-4.83l9.01-20.75h4.83l8.86,20.75h-5.01l-1.63-4.03ZM382.83,71.8l-3.26-8.06-3.29,8.06h6.55Z"/><path class="d" d="M400.2,69.01v3.02h-7.65v-3.02h7.65Z"/><path class="d" d="M419.47,58.84v3.97h-6.34v16.78h-4.68v-16.78h-6.31v-3.97h17.34Z"/><path class="d" d="M434.74,79.59l-3.29-5.93h-4.77v5.93h-4.68v-20.75h9.01c5.43,0,8.51,2.61,8.51,7.21,0,3.2-1.36,5.51-3.88,6.7l4.42,6.85h-5.31ZM426.67,69.75h4.33c2.58,0,4.06-1.19,4.06-3.56s-1.48-3.47-4.06-3.47h-4.33v7.03Z"/><path class="d" d="M459.25,58.84v3.88h-11.12v4.51h9.99v3.88h-9.99v4.6h11.44v3.88h-16.13v-20.75h15.8Z"/><path class="d" d="M479.05,58.84v3.88h-11.12v4.51h9.99v3.88h-9.99v4.6h11.44v3.88h-16.13v-20.75h15.8Z"/><path class="d" d="M276.47,97.01c0,4.83-3.02,7.62-8.3,7.62h-4.12v5.93h-4.68v-20.75h8.8c5.28,0,8.3,2.61,8.3,7.21ZM272.02,97.16c0-2.31-1.48-3.47-4.09-3.47h-3.88v7.03h3.88c2.61,0,4.09-1.19,4.09-3.56Z"/><path class="d" d="M292.21,110.56l-3.29-5.93h-4.77v5.93h-4.68v-20.75h9.01c5.43,0,8.51,2.61,8.51,7.21,0,3.2-1.36,5.51-3.88,6.7l4.42,6.85h-5.31ZM284.14,100.72h4.33c2.58,0,4.06-1.19,4.06-3.56s-1.48-3.47-4.06-3.47h-4.33v7.03Z"/><path class="d" d="M321.73,100.19c0,5.99-4.8,10.58-11.15,10.58s-11.15-4.57-11.15-10.58,4.8-10.53,11.15-10.53,11.15,4.51,11.15,10.53ZM304.24,100.19c0,3.65,2.94,6.49,6.4,6.49s6.29-2.85,6.29-6.49-2.82-6.43-6.29-6.43-6.4,2.79-6.4,6.43Z"/><path class="d" d="M338.22,100.1h4.06v7.98c-2.19,1.6-5.54,2.7-8.42,2.7-6.29,0-11.06-4.57-11.06-10.58s4.86-10.53,11.33-10.53c3.08,0,6.23,1.19,8.33,3.02l-2.64,3.35c-1.54-1.42-3.68-2.31-5.69-2.31-3.68,0-6.52,2.82-6.52,6.46s2.88,6.49,6.55,6.49c1.25,0,2.73-.44,4.06-1.13v-5.46Z"/><path class="d" d="M359.11,110.56l-3.29-5.93h-4.77v5.93h-4.68v-20.75h9.01c5.43,0,8.51,2.61,8.51,7.21,0,3.2-1.36,5.51-3.88,6.7l4.42,6.85h-5.31ZM351.05,100.72h4.33c2.58,0,4.06-1.19,4.06-3.56s-1.48-3.47-4.06-3.47h-4.33v7.03Z"/><path class="d" d="M381.53,106.53h-9.61l-1.63,4.03h-4.83l9.01-20.75h4.83l8.86,20.75h-5.01l-1.63-4.03ZM380.01,102.76l-3.26-8.06-3.29,8.06h6.55Z"/><path class="d" d="M395.58,89.81l6.05,12.69,6.02-12.69h5.22v20.75h-4.21v-13.99l-5.51,11.89h-3.05l-5.51-11.89v13.99h-4.24v-20.75h5.25Z"/><rect class="d" x="258.95" y="1.8" width="156.08" height="39.05"/><path class="c" d="M288.66,18.19c0,3.9-2.53,6.16-6.92,6.16h-4.64v5.63h-2.03V12.24h6.66c4.38,0,6.92,2.18,6.92,5.96ZM286.71,18.24c0-2.71-1.85-4.13-5.04-4.13h-4.56v8.37h4.56c3.19,0,5.04-1.45,5.04-4.23Z"/><path class="c" d="M303.51,25.44h-9.65l-1.98,4.54h-2.15l7.95-17.74h2.1l7.93,17.74h-2.2l-2-4.54ZM302.7,23.57l-4.03-9.12-3.98,9.12h8Z"/><path class="c" d="M323.38,29.98l-3.72-5.68c-.35.03-.73.05-1.14.05h-4.71v5.63h-2.03V12.24h6.74c4.43,0,6.99,2.18,6.99,5.96,0,2.91-1.44,4.92-4,5.73l4.18,6.06h-2.3ZM318.51,22.48c3.22,0,5.04-1.45,5.04-4.23s-1.82-4.13-5.04-4.13h-4.71v8.37h4.71Z"/><path class="c" d="M342.56,12.24v1.88h-5.8v15.87h-2.03v-15.87h-5.78v-1.88h13.6Z"/><path class="c" d="M348.87,12.24l10.64,14.42v-14.42h2v17.74h-2.08l-10.64-14.4v14.4h-2.03V12.24h2.1Z"/><path class="c" d="M380.2,12.24v1.88h-10.01v5.96h8.94v1.85h-8.94v6.18h10.33v1.88h-12.36V12.24h12.03Z"/><path class="c" d="M397.54,29.98l-3.72-5.68c-.35.03-.73.05-1.14.05h-4.71v5.63h-2.03V12.24h6.74c4.43,0,6.99,2.18,6.99,5.96,0,2.91-1.44,4.92-4,5.73l4.18,6.06h-2.3ZM392.67,22.48c3.22,0,5.04-1.45,5.04-4.23s-1.82-4.13-5.04-4.13h-4.71v8.37h4.71Z"/></svg>