<?xml version="1.0" encoding="UTF-8"?><svg id="a" xmlns="http://www.w3.org/2000/svg" viewBox="0 0 136.61 38.5"><defs><style>.b{letter-spacing:-.09em;}.c{letter-spacing:-.04em;}.d{letter-spacing:-.03em;}.e{letter-spacing:-.02em;}.f{letter-spacing:-.05em;}.g{fill:#fff;}.h{letter-spacing:-.04em;}.i{letter-spacing:-.04em;}.j,.k{fill:#00457d;}.l{letter-spacing:-.03em;}.k{font-family:HelveticaNeueLTPro-Hv, 'Helvetica Neue LT Pro';font-size:12.54px;}.m{letter-spacing:-.04em;}.n{letter-spacing:-.13em;}.o{letter-spacing:-.21em;}.p{letter-spacing:-.03em;}.q{letter-spacing:-.03em;}.r{letter-spacing:-.17em;}.s{letter-spacing:0em;}.t{letter-spacing:-.05em;}.u{letter-spacing:-.03em;}.v{letter-spacing:-.02em;}.w{letter-spacing:-.04em;}.x{letter-spacing:-.04em;}.y{letter-spacing:.03em;}.z{letter-spacing:0em;}.aa{letter-spacing:-.01em;}.ab{letter-spacing:.05em;}</style></defs><rect class="j" width="35.56" height="35.56"/><path class="g" d="M15.63,3.54s0,9.11,0,9.52c0,.67.82,3.75,5.07,3.75s4.93-3.07,4.93-3.73v-5.44l-3.26-3.42v8.51c0,.17.01,1.03-1.68,1.03s-1.76-.85-1.76-1.06V3.54h-3.31Z"/><polygon class="g" points="22.71 3.54 25.82 6.76 28.07 6.76 28.07 16.61 31.46 16.61 31.46 6.76 34.09 6.76 34.09 3.54 22.71 3.54"/><path class="g" d="M13.91,13.81l2.78,2.83h-3.74l-6.11-6.36h3.61l.96.99c.14-.32.23-.69.23-1.24,0-1.95-1.65-3.44-3.54-3.44s-3.4,1.61-3.4,3.49,1.54,3.45,3.47,3.45c.21,0,.39,0,.62-.07l2.51,2.69c-.71.51-2.07.76-3.12.76-3.72,0-6.62-3.17-6.62-6.78s2.94-6.64,6.71-6.64,6.73,3.06,6.73,6.78c.02,1.49-.71,3.03-1.08,3.56"/><text class="k" transform="translate(38.44 23.52)"><tspan class="v" x="0" y="0">t</tspan><tspan class="c" x="4.58" y="0">h</tspan><tspan class="ab" x="11.93" y="0">e</tspan><tspan class="n" x="20.21" y="0"> </tspan><tspan class="q" x="22.54" y="0">un</tspan><tspan class="s" x="37.62" y="0">i</tspan><tspan class="q" x="41.22" y="0">v</tspan><tspan class="l" x="47.59" y="0">e</tspan><tspan class="aa" x="54.83" y="0">r</tspan><tspan class="q" x="60.04" y="0">s</tspan><tspan class="s" x="66.66" y="0">i</tspan><tspan class="y" x="70.26" y="0">t</tspan><tspan x="75.51" y="0">y </tspan></text><text class="k" transform="translate(38.44 35.56)"><tspan class="m" x="0" y="0">f</tspan><tspan class="t" x="4.08" y="0">o</tspan><tspan class="u" x="11.13" y="0">r</tspan><tspan class="b" x="16.11" y="0"> </tspan><tspan class="e" x="18.94" y="0">t</tspan><tspan class="x" x="23.51" y="0">h</tspan><tspan class="ab" x="30.86" y="0">e</tspan><tspan class="o" x="39.14" y="0"> </tspan><tspan class="i" x="40.46" y="0">r</tspan><tspan class="d" x="45.34" y="0">e</tspan><tspan class="w" x="52.63" y="0">a</tspan><tspan class="z" x="59.58" y="0">l</tspan><tspan class="r" x="63.41" y="0"> </tspan><tspan class="f" x="65.18" y="0">w</tspan><tspan class="h" x="75.01" y="0">o</tspan><tspan class="p" x="82.12" y="0">r</tspan><tspan class="h" x="87.1" y="0">l</tspan><tspan x="90.26" y="0">d</tspan></text></svg>