<?xml version="1.0" encoding="UTF-8"?>
<svg id="Layer_1" xmlns="http://www.w3.org/2000/svg" version="1.1" viewBox="0 0 82.6 84.4">
  <!-- Generator: Adobe Illustrator 29.2.0, SVG Export Plug-In . SVG Version: 2.1.0 Build 108)  -->
  <defs>
    <style>
      .st0 {
        fill: #fff;
      }
    </style>
  </defs>
  <path class="st0" d="M22.2,14.7c.5.8,1.3,1.2,2.2,1.2h.3c1.3-.2,2.5-1,3.3-2.1,1.1,2.3,3.9,4.7,7.2,6,1,.4,2.1.6,3.1.8-.2.4-.4.8-.4,1.2s.3,1.1.8,1.3c.3.1.7.2,1,.2,2.1,0,4.2-1,5.5-2.7,2.2-.3,4.4-.9,6.5-1.8,1.4-.6,6.6-3.8,6.5-7.8,0-2.7-2.5-5.2-7.2-7.2-1.9-.8-4-1.3-6.1-1.5-1.5-1.9-4-2.7-6.3-2.2-1.4.4-2.3,1.2-2.5,2.2,0,.4,0,.8.2,1.2-1.4.5-2.8,1.2-4,2-1.6,1-3,2.3-4,3.9-.7-1.3-2-2.1-3.5-2.3-1-.2-2,.3-2.5,1.2-.3.5-.6,1.6.5,3.2-1.1,1.6-.8,2.6-.6,3.2ZM33.1,6.9c3.1-2,6.6-3.1,10.3-3.1h1c2,.1,4.1.6,5.9,1.4,4.1,1.7,6.2,3.7,6.3,5.7,0,3.1-4.7,6-5.6,6.4-5.6,2.6-12.3,2.1-15.2.9-4-1.6-6.7-4.7-6.7-6.6s1.4-2.9,4-4.7Z"/>
  <path class="st0" d="M49.1,9.1c1,0,1.9-.6,2.3-1.5,0-.5,0-1.1-.6-1.3-.4-.2-.9-.1-1.1.3,0,.2,0,.5,0,.8-.2.1-.4.2-.6.2-.4,0-.8.4-.8.8s.4.7.8.7ZM45.1,17.4c.4,0,.8-.4.8-.8s0-.4-.2-.5c-2.1-2.2-2.6-7.1-.9-9.9.2-.4,0-.8-.2-1.1-.4-.2-.8-.1-1.1.2-2.1,3.5-1.5,9.1,1.1,11.8,0,.2.3.3.5.3ZM34.8,41.3h.3c.9,0,1.8-.4,2.3-1.2.3-.5.6-1.7-.5-3.3,1.1-1.6.8-2.7.5-3.3-.5-.9-1.6-1.4-2.6-1.2-1.5.2-2.9,1.1-3.6,2.5-1.1-1.7-2.5-3.1-4.2-4.1-1.3-.9-2.7-1.6-4.2-2.1.2-.4.3-.8.2-1.3-.2-1-1.1-1.9-2.5-2.3-2.4-.6-5,.3-6.6,2.2-2.2.2-4.3.7-6.4,1.6C2.6,30.9,0,33.4,0,36.2c-.1,4.1,5.3,7.4,6.8,8.1,2.1,1,4.4,1.6,6.7,1.9,1.3,1.9,4.1,2.8,5.8,2.8s.7,0,1-.2c.5-.3.8-.8.8-1.4s-.1-.9-.4-1.2c1.1-.2,2.2-.4,3.2-.8,3.5-1.4,6.3-3.9,7.5-6.2.8,1.1,2,1.9,3.4,2.1ZM14.2,42.6c-.3.3-.8.3-1.1,0-.3-.3-.3-.8,0-1.1,2.2-2.3,2.7-7.4.9-10.4-.2-.4-.1-.8.2-1.1.4-.2.8,0,1.1.2,2.2,3.8,1.7,9.6-1.1,12.4ZM6.4,34.2v.9c0,.5-.4.9-.9.9s-.9-.4-.9-.9v-.8c0-.5.4-.9.9-.9s.9.4.9.8ZM59.5,67.3c-.4-.2-.9,0-1.1.3,0,.2,0,.5,0,.8-.2,0-.4.2-.6.2-.4,0-.8.4-.8.8s.4.8.8.8c1,0,1.9-.6,2.3-1.5,0-.6,0-1.1-.6-1.4Z"/>
  <path class="st0" d="M59.8,64.8c-1.9-.8-4-1.3-6.1-1.5-1.5-1.9-4-2.7-6.3-2.2-1.4.4-2.3,1.2-2.5,2.2,0,.4,0,.8.2,1.2-1.4.5-2.8,1.2-4,2-1.6,1-3,2.3-4,3.9-.7-1.3-2-2.1-3.5-2.3-1-.2-2,.3-2.5,1.2-.3.5-.6,1.6.5,3.2-1.1,1.6-.8,2.6-.5,3.2.5.8,1.3,1.2,2.2,1.2h.3c1.3-.2,2.5-1,3.3-2.1,1.1,2.3,3.9,4.7,7.2,6,1,.4,2,.6,3,.8-.2.3-.3.7-.3,1.2s.3,1.1.8,1.4c.3,0,.7.2,1,.2,2.1,0,4.2-1,5.5-2.7,2.2-.3,4.4-.9,6.5-1.8,1.4-.6,6.6-3.8,6.5-7.8-.2-2.9-2.6-5.3-7.3-7.3h0ZM59.8,78.4c-5.6,2.6-12.3,2.1-15.2.9-4-1.6-6.7-4.7-6.7-6.6s1.4-3.1,4-4.8c3.1-2,6.6-3.1,10.3-3.1h1c2,0,4.1.6,5.9,1.4,4.1,1.7,6.2,3.7,6.3,5.7,0,3.2-4.7,6-5.6,6.5Z"/>
  <path class="st0" d="M53.5,67.2c.2-.4,0-.8-.2-1.1-.4-.2-.8,0-1.1.2-2.1,3.5-1.5,9.1,1.1,11.8.3.3.8.3,1.1,0,.3-.3.3-.8,0-1.1-2.2-2.2-2.7-7.1-1-9.9ZM75.1,40.3c-.4-.2-.9,0-1.1.3,0,.2,0,.5,0,.7-.2,0-.4.2-.6.2-.4,0-.8.4-.8.8s.4.8.8.8c1,0,1.9-.6,2.3-1.5,0-.5-.2-1-.6-1.3Z"/>
  <path class="st0" d="M75.3,37.8c-1.9-.8-4-1.3-6.1-1.5-1.5-1.9-4-2.7-6.3-2.2-1.4.4-2.3,1.2-2.5,2.2,0,.4,0,.8.2,1.2-1.4.5-2.8,1.2-4,2-1.6,1-3,2.3-4,3.9-.7-1.3-2-2.1-3.5-2.3-1-.2-2,.3-2.5,1.2-.3.5-.6,1.6.5,3.2-1.1,1.6-.8,2.6-.5,3.2.5.8,1.3,1.2,2.2,1.2h.3c1.3-.2,2.5-1,3.3-2.1,1.1,2.3,3.9,4.7,7.2,6,1,.4,2,.6,3.1.8-.2.4-.4.8-.4,1.2,0,.6.3,1.1.8,1.3.3,0,.7.2,1,.2,2.1,0,4.2-1,5.5-2.7,2.2-.3,4.4-.9,6.5-1.8,1.4-.6,6.6-3.8,6.5-7.8,0-2.8-2.5-5.2-7.3-7.2ZM75.4,51.4c-5.6,2.6-12.3,2.1-15.2.9-4-1.6-6.7-4.7-6.7-6.6s1.4-3.1,4-4.8c3.1-2,6.6-3.1,10.3-3.1h1c2,0,4.1.6,5.9,1.4,4.1,1.7,6.2,3.7,6.3,5.7,0,3.2-4.7,6-5.6,6.5Z"/>
  <path class="st0" d="M69.1,40.2c.2-.4,0-.9-.3-1.1-.4-.2-.9,0-1.1.3-2.1,3.5-1.5,9.1,1.1,11.8.3.3.8.4,1.1,0,.3-.3.4-.8,0-1.1h0c-2.1-2.3-2.5-7.2-.8-10ZM21.7,54.5c0-.4-.3-.8-.8-.8h-6c-.4,0-.8.3-.8.8s.3.8.8.8h6c.4,0,.8-.3.8-.8ZM25,57.6h-4.9c-.4,0-.8.3-.8.8s.3.8.8.8h4.9c.4,0,.8-.3.8-.8s-.4-.8-.8-.8ZM3,23.1h6c.4,0,.8-.3.8-.8s-.3-.8-.8-.8H3c-.4,0-.8.3-.8.8.1.4.4.8.8.8ZM8.2,19.2h4.9c.4,0,.8-.3.8-.8s-.3-.8-.8-.8h-4.9c-.4,0-.8.3-.8.8s.4.8.8.8Z"/>
</svg>