<?xml version="1.0" encoding="UTF-8"?>
<svg id="Layer_1" xmlns="http://www.w3.org/2000/svg" version="1.1" viewBox="0 0 75.8 91">
  <!-- Generator: Adobe Illustrator 29.2.0, SVG Export Plug-In . SVG Version: 2.1.0 Build 108)  -->
  <defs>
    <style>
      .st0 {
        fill: #fff;
      }
    </style>
  </defs>
  <path class="st0" d="M32.9,16.7c-10.2,0-18.6,8.3-18.6,18.6v2.9H1.5c-.8,0-1.4.6-1.4,1.4v31.4h30v-31.4c0-.8-.6-1.4-1.4-1.4h-11.5v-2.9c0-8.7,7-15.7,15.7-15.7s1.4-.6,1.4-1.4-.6-1.5-1.4-1.5ZM22.2,56c0,3.9-3.2,7.1-7.1,7.1s-7.1-3.2-7.1-7.1,3.2-7.1,7.1-7.1,7.1,3.2,7.1,7.1ZM0,73.9h30v5.7H0v-5.7ZM30,82.5v7.1c0,.8-.6,1.4-1.4,1.4H1.5c-.8,0-1.4-.6-1.4-1.4v-7.1h29.9ZM74.3,51.8h-9v-1.7c0-7.7-6.2-13.9-13.9-13.9s-1.4.6-1.4,1.4.6,1.4,1.4,1.4c6.1,0,11,4.9,11,11v1.7h-7.9c-.8,0-1.4.6-1.4,1.4v22.5h22.6v-22.4c0-.8-.6-1.4-1.4-1.4ZM64.5,70.9c-3.1,0-5.6-2.5-5.6-5.6s2.5-5.6,5.6-5.6,5.6,2.5,5.6,5.6c0,3.1-2.6,5.6-5.6,5.6ZM53.2,78.6h22.6v3.4h-22.6v-3.4ZM53.2,89.6c0,.8.6,1.4,1.4,1.4h19.7c.8,0,1.4-.6,1.4-1.4v-4.8h-22.5v4.8ZM47.7,32.2l-2.3,2.3.5,3.2c0,.5,0,1.1-.6,1.4-.3.2-.6.3-.8.3s-.5,0-.7-.2l-2.9-1.5-2.9,1.5c-.5.3-1.1.2-1.5,0s-.7-.9-.6-1.4l.5-3.2-2.3-2.3c-.4-.4-.5-.9-.4-1.5.2-.5.6-.9,1.2-1l3.2-.5,1.4-2.9c.5-1,2.1-1,2.6,0l1.4,2.9,3.2.5c.5,0,1,.5,1.2,1,.4.6.2,1.1-.2,1.5ZM40,12.4l-.9,5.2c0,.5,0,1.1.6,1.4.4.3,1,.4,1.5.1l4.7-2.5,4.7,2.5c.2.1.4.2.7.2s.6-.1.8-.3c.4-.3.7-.9.6-1.4l-.9-5.2,3.8-3.7c.4-.4.5-.9.4-1.5-.2-.5-.6-.9-1.2-1l-5.3-.7-2.4-4.8c-.5-1-2.1-1-2.6,0l-2.3,4.8-5.3.8c-.5.1-1,.4-1.2,1-.2.5,0,1.1.4,1.5,0,0,3.9,3.6,3.9,3.6Z"/>
</svg>