<?xml version="1.0" encoding="UTF-8"?>
<svg id="Layer_1" xmlns="http://www.w3.org/2000/svg" version="1.1" viewBox="0 0 87.3 90">
  <!-- Generator: Adobe Illustrator 29.2.0, SVG Export Plug-In . SVG Version: 2.1.0 Build 108)  -->
  <defs>
    <style>
      .st0 {
        fill: #fff;
      }
    </style>
  </defs>
  <path class="st0" d="M36.7,31c2,.5,4.8,2.9,6.5,2.9s4.5-2.4,6.5-2.9c.4,0,.7-.3.7-.9s-.3-.9-.8-.8c-2,.6-4.5,3.1-6.4,3.1s-4.5-2.5-6.6-3.1c-.3,0-.7.3-.7.8s.2.8.8.9ZM34.5,43.2c.2,0,.3.2.5.2.4,0,.9,0,.9-.6s-.3-.7,0-1.1c.7-1.2,0-3-1.6-3.9-1.7-1-4-1.6-5-.4-.7.9,1.7,1.4,3.3,2.4.8.4.8,1.6,1.2,2.2.3.2.4.9.8,1.2ZM53.8,37c-1.6,1-2.3,2.7-1.6,3.9.2.4,0,.9,0,1.1,0,.5.4.6.9.6s.3,0,.5-.2c.3-.3.4-1,.7-1.4.4-.6.4-1.7,1.2-2.2,1.7-1,4-1.5,3.3-2.4-.8-1-3.2-.4-4.9.6Z"/>
  <path class="st0" d="M43.6,0C19.8,0-3.9,18,.6,41.3c4.7,23.8,19.2,48.7,43,48.7s36.5-23.3,42.9-48.7C92.3,18.3,67.3,0,43.6,0ZM12.3,26c0-4.2,3.3-7.5,7.5-7.5s3.4.6,4.7,1.7c-4.3,2.7-7.6,7-9.2,12-1.7-1.4-3-3.7-3-6.2ZM43.6,77.4c-15.3,0-27.7-17.9-27.7-33.3s12.4-27.6,27.7-27.6,27.6,12.4,27.6,27.6-12.4,33.3-27.6,33.3ZM71.8,31.7c-1.6-5.1-4.9-9.3-9.2-12,1.3-1,2.9-1.7,4.7-1.7,4.2,0,7.5,3.3,7.5,7.5,0,2.6-1.2,4.8-3,6.2Z"/>
  <path class="st0" d="M53.8,65.8c-2.6-.5-6.1-2.3-8.6-2.8v-9.9q0,0,.2,0l3.2-1c2.1-.6,1.3-2.8-1-2.8l-7-.2c-2.3,0-3.1,2.3-1,2.9l3.3,1h0v10c-2.5.5-6,2.3-8.5,2.8-.7,0-1,1.4-1,1.8s.5.9,1.1.8c3.1-.6,7.2-3.1,9.8-3.1s6.5,2.5,9.3,3.1c.7,0,1.2-.3,1.2-.8,0-.3-.4-1.6-1.1-1.7Z"/>
</svg>