<?xml version="1.0" encoding="UTF-8"?>
<svg id="Layer_1" xmlns="http://www.w3.org/2000/svg" version="1.1" viewBox="0 0 83.4 82.7">
  <!-- Generator: Adobe Illustrator 29.2.0, SVG Export Plug-In . SVG Version: 2.1.0 Build 108)  -->
  <defs>
    <style>
      .st0 {
        fill: #fff;
      }
    </style>
  </defs>
  <path class="st0" d="M40.9,8v71.8s-11.8,8.2-17.8-3.6c0,0-20.9.2-14.3-22.3,0,0-17.6-7.9-3.1-34.2.4-.8.2-2.8.3-3.6.3-2,.9-4,1.6-5.9C10.6,3.9,17.1-.5,24,0c7.6.3,13.3,1.8,16.9,8ZM33.8,11.8c-15.3-15.7-18.1,4.6-18.1,4.6,6.8-11.9,18.1-4.6,18.1-4.6ZM37.7,25.6c-3.1-4.8-8-2.8-9.3-2.1-3.4-2.9-9-2.9-9-2.9,11.6,3.6,8.5,17.4,8.5,17.4,3.3-5.5,3.5-9.2,2.6-11.8,2-2.2,7.2-.6,7.2-.6ZM20.1,43.7c-.9-5.6,2.9-14.4,2.9-14.4-5.2,3.1-6.1,7.5-6,10.7-3.4-5-4.1-10.7-4.1-10.7-2.4,31.2,24.1,18,24.1,18-8,1.6-13.4-.3-16.9-3.6ZM30.9,55.7c-3.4.6-5.4,2-6.2,3.8-6-2.1-8.4,5.6-8.4,5.6,3.6-3,6.2-3,7.7-2.5,0,4,2.8,8,2.8,8-1.5-9.9,4.1-14.9,4.1-14.9ZM33.8,75.7c-1.6-8.6,1.6-9.9,1.6-9.9-9.1,2.6-1.6,9.9-1.6,9.9ZM14.3,22.2s-15.6,3.1-8.5,20.9c0,0-1.1-13.1,8.5-20.9ZM30.9,61.5s8.9,2.8,7.9-7.4c0,0-1.9,6.1-7.9,7.4ZM37.5,39.8s-8.3-4.4-9,5.8c0,0,2.8-5.8,9-5.8ZM59.3.1c6.9-.5,13.5,4,16.4,10.2.9,1.8,1.3,3.9,1.6,5.9,0,.9,0,2.9.3,3.6,14.5,26.3-3.1,34.2-3.1,34.2,6.7,22.5-14.3,22.3-14.3,22.3-6,11.8-17.8,3.6-17.8,3.6V8.2C46.3,2,52.2.5,59.3.1ZM68,16.6s-2.9-20.3-18.1-4.6c0,0,11.3-7.2,18.1,4.6ZM53.3,26.5c-1.1,2.6-.8,6.3,2.6,11.8,0,0-3.1-13.7,8.5-17.4,0,0-5.7,0-9,2.9-1.2-.6-6.2-2.7-9.3,2.1-.2,0,5-1.7,7.2.6ZM46.8,47.4s26.5,13.2,24.1-17.9c0,0-.8,5.7-4.1,10.7,0-3.2-1-7.6-6-10.7,0,0,3.6,8.9,2.9,14.4-3.7,3.3-9.1,5.3-16.9,3.5ZM56.9,70.8s2.7-4.1,2.8-8c1.4-.5,4-.5,7.7,2.5,0,0-2.4-7.7-8.4-5.6-1-1.7-2.8-3.1-6.2-3.8,0,0,5.5,5,4.1,14.9ZM48.2,66.1s3.3,1.3,1.6,9.9c0,0,7.5-7.4-1.6-9.9ZM77.8,43.4c7.1-17.8-8.5-20.9-8.5-20.9,9.6,7.7,8.5,20.9,8.5,20.9ZM44.9,54.3c-1.1,10.2,7.9,7.4,7.9,7.4-6.1-1.3-7.9-7.4-7.9-7.4ZM55.2,45.8c-.8-10.2-9-5.8-9-5.8,6.1,0,9,5.8,9,5.8Z"/>
</svg>