<?xml version="1.0" encoding="UTF-8"?>
<svg id="Layer_1" xmlns="http://www.w3.org/2000/svg" version="1.1" viewBox="0 0 95 90.2">
  <!-- Generator: Adobe Illustrator 29.2.0, SVG Export Plug-In . SVG Version: 2.1.0 Build 108)  -->
  <defs>
    <style>
      .st0 {
        fill: #fff;
      }
    </style>
  </defs>
  <g id="Layer_11" data-name="Layer_1">
    <path class="st0" d="M91.5,76.7c.6-1,.9-2.2.9-3.5,0-3.3-2.3-6.2-5.3-7,0,0-.2,0-.3,0-.5-3.6-3.5-6.3-7.2-6.3s-1.3,0-2,.3c-2.6.7-4.6,2.9-5.2,5.5-1.1-.4-2.3-.7-3.5-.7-3.7,0-6.9,2.1-8.6,5.2-1.2-.6-2.6-.9-4-.9s-3.3.5-4.7,1.3l-1.1-18.6h-6l-1.1,18.4c-1.2-.6-2.6-1-4-1s-3.3.5-4.6,1.4c-1.2-3.9-4.8-6.8-9.2-6.8s-2,.2-2.9.5c-.9-2.1-2.6-3.6-4.8-4.2-.6-.2-1.3-.3-2-.3-3.6,0-6.5,2.6-7.2,6-3.4.6-5.9,3.6-5.9,7.2s.4,2.5,1,3.6c-2.3,1-3.8,3.4-3.8,6.2,0,4,3.3,7.3,7.3,7.3h80.4c.7,0,1.3,0,2-.3,3.1-.8,5.3-3.7,5.3-7s-1.4-5-3.5-6.2ZM30.8,44.7c0,1.1,1.2,1.8,2.2,1.3,2.5-1.2,5.1-2,7.7-2.4v2c0,.8.6,1.4,1.4,1.4h10.7c.8,0,1.4-.6,1.4-1.4v-2c2.7.4,5.3,1.2,7.8,2.4,1,.5,2.2-.2,2.2-1.3l.6-7.8c.3-3.4-1.6-6.6-4.7-8l-.8-.4v-10c0-4.1-1.5-8.1-4.2-11.2l-5.2-6.2c-1.3-1.5-3.6-1.5-4.8,0l-5.3,6.2c-2.7,3.1-4.2,7.1-4.2,11.2v10l-.8.4c-3.1,1.4-4.9,4.6-4.7,8,0,0,.7,7.8.7,7.8ZM47.5,17.2c2.2,0,3.9,1.8,3.9,3.9s-1.7,3.9-3.9,3.9-3.9-1.7-3.9-3.9,1.7-3.9,3.9-3.9Z"/>
  </g>
</svg>