<?xml version="1.0" encoding="UTF-8"?>
<svg id="Layer_1" xmlns="http://www.w3.org/2000/svg" version="1.1" viewBox="0 0 1600 560">
  <!-- Generator: Adobe Illustrator 29.8.9, SVG Export Plug-In . SVG Version: 2.1.1 Build 1)  -->
  <defs>
    <style>
      .st0 {
        stroke-dasharray: 3 14;
      }

      .st0, .st1 {
        opacity: .3;
        stroke: #ff3d6b;
      }

      .st0, .st1, .st2 {
        fill: none;
        isolation: isolate;
        stroke-linecap: round;
        stroke-width: 4px;
      }

      .st1, .st2 {
        stroke-linejoin: round;
      }

      .st2 {
        opacity: .4;
        stroke: #b9b1aa;
      }
    </style>
  </defs>
  <path class="st1" d="M100,155c-42-39-49-101,1-124,49-23,103,12,111,63"/>
  <path class="st1" d="M188,72l24,23,11-33"/>
  <path class="st2" d="M798,61V24"/>
  <path class="st2" d="M767,70l-22-27"/>
  <path class="st2" d="M829,70l23-27"/>
  <path class="st2" d="M755,94l-36-7"/>
  <path class="st2" d="M841,94l36-7"/>
  <path class="st1" d="M1407,140c18-56,81-83,125-51,38,28,27,78-5,93-28,14-50-3-46-25,6-31,57-38,94-10"/>
  <path class="st1" d="M1405.4,115l-2.1,30,26.8-14.7"/>
  <path class="st0" d="M135,433c46-28,84-17,95,16,8,25-6,48-37,61"/>
  <path class="st2" d="M661,516c86,20,188,20,282-2"/>
  <path class="st2" d="M1480,444l18-30"/>
  <path class="st2" d="M1502,455l32-12"/>
  <path class="st2" d="M1472,467l-28,17"/>
</svg>